<svg xmlns="http://www.w3.org/2000/svg" width="96" height="96" viewBox="0 0 96 96">
  <defs>
    <linearGradient id="hull" x1="0" y1="0" x2="0" y2="1">
      <stop offset="0" stop-color="#f2f4f8"/>
      <stop offset="1" stop-color="#6c7480"/>
    </linearGradient>
    <linearGradient id="coil" x1="0" y1="0" x2="0" y2="1">
      <stop offset="0" stop-color="#c8d0d8"/>
      <stop offset="1" stop-color="#7a828c"/>
    </linearGradient>
    <radialGradient id="glow" cx="0.5" cy="0.5" r="0.5">
      <stop offset="0" stop-color="#ffffff" stop-opacity="0.95"/>
      <stop offset="1" stop-color="#ffffff" stop-opacity="0"/>
    </radialGradient>
  </defs>
  <rect x="30" y="18" width="36" height="58" rx="4" fill="url(#hull)" stroke="#17171e" stroke-width="2.4"/>
  <rect x="36" y="6" width="24" height="16" rx="3" fill="#a8b0b8" stroke="#17171e" stroke-width="2"/>
  <rect x="40" y="10" width="16" height="6" rx="2" fill="#14141b"/>
  <line x1="48" y1="6" x2="48" y2="1" stroke="#565660" stroke-width="1.8"/>
  <circle cx="48" cy="0.5" r="1.8" fill="#ffe9a8"/>
  <rect x="6" y="22" width="18" height="50" rx="6" fill="url(#coil)" stroke="#17171e" stroke-width="2"/>
  <rect x="72" y="22" width="18" height="50" rx="6" fill="url(#coil)" stroke="#17171e" stroke-width="2"/>
  <line x1="10" y1="32" x2="20" y2="32" stroke="#4a525c" stroke-width="2"/>
  <line x1="10" y1="42" x2="20" y2="42" stroke="#4a525c" stroke-width="2"/>
  <line x1="10" y1="52" x2="20" y2="52" stroke="#4a525c" stroke-width="2"/>
  <line x1="10" y1="62" x2="20" y2="62" stroke="#4a525c" stroke-width="2"/>
  <line x1="76" y1="32" x2="86" y2="32" stroke="#4a525c" stroke-width="2"/>
  <line x1="76" y1="42" x2="86" y2="42" stroke="#4a525c" stroke-width="2"/>
  <line x1="76" y1="52" x2="86" y2="52" stroke="#4a525c" stroke-width="2"/>
  <line x1="76" y1="62" x2="86" y2="62" stroke="#4a525c" stroke-width="2"/>
  <polyline points="15,28 12,36 18,40 11,48 16,54" fill="none" stroke="#d8e4ee" stroke-width="1.6"/>
  <polyline points="81,28 84,36 78,40 85,48 80,54" fill="none" stroke="#d8e4ee" stroke-width="1.6"/>
  <rect x="38" y="28" width="20" height="36" rx="2" fill="#8a929c" stroke="#17171e" stroke-width="1.6"/>
  <line x1="40" y1="36" x2="56" y2="36" stroke="#5c646e" stroke-width="1.4"/>
  <line x1="40" y1="44" x2="56" y2="44" stroke="#5c646e" stroke-width="1.4"/>
  <line x1="40" y1="52" x2="56" y2="52" stroke="#5c646e" stroke-width="1.4"/>
  <rect x="34" y="74" width="28" height="10" rx="2" fill="#6a727c" stroke="#17171e" stroke-width="1.6"/>
  <circle cx="42" cy="79" r="1.8" fill="#ffe9a8"/>
  <circle cx="48" cy="79" r="1.8" fill="#ffe9a8"/>
  <circle cx="54" cy="79" r="1.8" fill="#ffe9a8"/>
  <ellipse cx="15" cy="90" rx="6" ry="2.2" fill="url(#glow)"/>
  <ellipse cx="48" cy="90" rx="7" ry="2.4" fill="url(#glow)"/>
  <ellipse cx="81" cy="90" rx="6" ry="2.2" fill="url(#glow)"/>
  <circle cx="15" cy="90" r="1.8" fill="#fffbe8"/>
  <circle cx="48" cy="90" r="2" fill="#fffbe8"/>
  <circle cx="81" cy="90" r="1.8" fill="#fffbe8"/>
</svg>
