<svg xmlns="http://www.w3.org/2000/svg" width="48" height="48" viewBox="0 0 48 48">
  <rect x="2" y="2" width="44" height="44" rx="10" fill="#141a2a" stroke="#0a0e18" stroke-width="2"/>
  <circle cx="24" cy="24" r="17" fill="none" stroke="#73bfff" stroke-width="2.6"/>
  <circle cx="24" cy="24" r="13.5" fill="#73bfff" opacity="0.16"/>
  <circle cx="24" cy="24" r="17" fill="none" stroke="white" stroke-width="0.8" opacity="0.35" stroke-dasharray="2 6"/>
  <path d="M24 12.2 L32.6 16.2 L32.6 24.8 C32.6 29.4 29.6 33.4 24 35.8 C18.4 33.4 15.4 29.4 15.4 24.8 L15.4 16.2 Z" fill="white" stroke="#0a0e18" stroke-width="0.75" stroke-linejoin="round"/>
  <path d="M24 12.2 L32.6 16.2 L32.6 24.8 C32.6 29.4 29.6 33.4 24 35.8 C18.4 33.4 15.4 29.4 15.4 24.8 L15.4 16.2 Z" fill="none" stroke="#73bfff" stroke-width="1.25" opacity="0.9" stroke-linejoin="round"/>
  <path d="M19.8 24.6 L22.6 27.4 L28.2 21.2" stroke="#0a0e18" stroke-width="1.2" stroke-linecap="round" stroke-linejoin="round" fill="none" opacity="0.35"/>
  <path d="M19.8 24.2 L22.6 27 L28.2 20.8" stroke="white" stroke-width="2.15" stroke-linecap="round" stroke-linejoin="round" fill="none"/>
  <circle cx="28.5" cy="17.6" r="1.15" fill="white" opacity="0.55"/>
</svg>
