<svg xmlns="http://www.w3.org/2000/svg" width="64" height="64" viewBox="0 0 64 64">
  <defs>
    <linearGradient id="hull_d" x1="0" y1="0" x2="0" y2="1">
      <stop offset="0" stop-color="#fff8e4"/>
      <stop offset="0.5" stop-color="#f0d878"/>
      <stop offset="1" stop-color="#c9a038"/>
    </linearGradient>
    <linearGradient id="wing_d" x1="0" y1="0" x2="1" y2="1">
      <stop offset="0" stop-color="#fff4d0"/>
      <stop offset="1" stop-color="#d4b45c"/>
    </linearGradient>
    <radialGradient id="glow_d" cx="0.5" cy="0.5" r="0.5">
      <stop offset="0" stop-color="#ffe9a0" stop-opacity="0.95"/>
      <stop offset="1" stop-color="#ffb020" stop-opacity="0"/>
    </radialGradient>
  </defs>
  <path d="M32 2 L22 18 L6 28 L12 40 L22 34 L20 50 L32 60 L44 50 L42 34 L52 40 L58 28 L42 18 Z" fill="url(#wing_d)" stroke="#1b2c40" stroke-width="2"/>
  <path d="M32 2 L18 22 L6 28 L20 26 L26 16 Z" fill="#e8d080" opacity="0.92"/>
  <path d="M32 2 L46 22 L58 28 L44 26 L38 16 Z" fill="#fff0c0" opacity="0.92"/>
  <path d="M26 8 L38 8 L40 46 L32 56 L24 46 Z" fill="url(#hull_d)" stroke="#1b2c40" stroke-width="2"/>
  <path d="M32 3 L27 14 L32 12 L37 14 Z" fill="#ffffff"/>
  <circle cx="32" cy="24" r="4.5" fill="#fff6d0" stroke="#1b2c40" stroke-width="1.3"/>
  <circle cx="32" cy="24" r="2" fill="#ffe082"/>
  <path d="M29 16 L35 16 L35 40 L29 40 Z" fill="#6a5420"/>
  <line x1="27" y1="30" x2="37" y2="30" stroke="#a88838" stroke-width="1.3"/>
  <line x1="27" y1="36" x2="37" y2="36" stroke="#a88838" stroke-width="1.3"/>
  <path d="M20 34 L10 46 L20 44 L24 38 Z" fill="#f4e6b0" stroke="#1b2c40" stroke-width="1.5"/>
  <path d="M44 34 L54 46 L44 44 L40 38 Z" fill="#fff6d4" stroke="#1b2c40" stroke-width="1.5"/>
  <rect x="16" y="48" width="8" height="8" rx="2" fill="#2a2414" stroke="#1b2c40" stroke-width="1.3"/>
  <rect x="28" y="50" width="8" height="8" rx="2" fill="#2a2414" stroke="#1b2c40" stroke-width="1.3"/>
  <rect x="40" y="48" width="8" height="8" rx="2" fill="#2a2414" stroke="#1b2c40" stroke-width="1.3"/>
  <ellipse cx="20" cy="61" rx="5" ry="2.3" fill="url(#glow_d)"/>
  <ellipse cx="32" cy="62" rx="6" ry="2.5" fill="url(#glow_d)"/>
  <ellipse cx="44" cy="61" rx="5" ry="2.3" fill="url(#glow_d)"/>
  <circle cx="20" cy="61" r="1.8" fill="#ffe9a8"/>
  <circle cx="32" cy="62" r="2.1" fill="#fff3c0"/>
  <circle cx="44" cy="61" r="1.8" fill="#ffe9a8"/>
</svg>
